<svg xmlns="http://www.w3.org/2000/svg" viewBox="0 0 25 17.43"><defs><style>.cls-1{fill:#023985;}</style></defs><title>資產 1</title><g id="圖層_2" data-name="圖層 2"><g id="圖層_1-2" data-name="圖層 1"><path class="cls-1" d="M24,2H1A1,1,0,0,1,0,1H0A1,1,0,0,1,1,0H24a1,1,0,0,1,1,1h0A1,1,0,0,1,24,2Z"/><path class="cls-1" d="M24,9.72H1a1,1,0,0,1-1-1H0a1,1,0,0,1,1-1H24a1,1,0,0,1,1,1h0A1,1,0,0,1,24,9.72Z"/><path class="cls-1" d="M24,17.43H1a1,1,0,0,1-1-1H0a1,1,0,0,1,1-1H24a1,1,0,0,1,1,1h0A1,1,0,0,1,24,17.43Z"/></g></g></svg>